<?xml version="1.0" encoding="UTF-8"?>
<svg version="1.1" xmlns="http://www.w3.org/2000/svg" width="260" height="280">
<path d="M0 0 C0.93925827 0.00202423 1.87851654 0.00404846 2.84623718 0.00613403 C3.82988754 0.00438171 4.8135379 0.00262939 5.82699585 0.00082397 C9.09579709 -0.00359648 12.36454472 -0.00065587 15.63334656 0.00271606 C17.89396678 0.00204308 20.15458693 0.0010731 22.41520691 -0.00018311 C27.15996487 -0.00166034 31.90470405 0.0004953 36.64945984 0.00515747 C42.7464828 0.01085477 48.84346175 0.0075759 54.94048309 0.00158501 C59.61058385 -0.00201991 64.28067408 -0.00088234 68.95077515 0.0017128 C71.19956467 0.00238226 73.44835513 0.00155298 75.69714355 -0.00076675 C78.83410694 -0.00329214 81.97099797 0.00054571 85.10795593 0.00613403 C86.51684334 0.00309769 86.51684334 0.00309769 87.95419312 0 C94.36283431 0.02126631 94.36283431 0.02126631 95.47709656 1.13552856 C95.57376592 3.0971446 95.59896753 5.06229501 95.59735107 7.02629089 C95.59941307 8.94678001 95.59941307 8.94678001 95.60151672 10.90606689 C95.59797711 12.33810448 95.59434229 13.77014183 95.59062195 15.20217896 C95.59034009 16.69984434 95.59049779 18.19750987 95.59106445 19.69517517 C95.59135246 23.77351028 95.5854552 27.85181624 95.5784905 31.93014455 C95.57225751 36.18760485 95.5716532 40.44506575 95.57046509 44.70252991 C95.56735161 52.77026043 95.559138 60.83797748 95.5491156 68.90570205 C95.53795498 78.08813636 95.53244414 87.27057129 95.52742016 96.45301068 C95.51695539 115.34719096 95.49935563 134.24135868 95.47709656 153.13552856 C93.20485779 154.27164795 91.96944244 154.26121701 89.44692993 154.26251221 C88.60421036 154.26533203 87.76149078 154.26815186 86.89323425 154.27105713 C85.50376587 154.26802078 85.50376587 154.26802078 84.08622742 154.2649231 C83.1121846 154.26667542 82.13814178 154.26842773 81.13458252 154.27023315 C77.90368385 154.27464708 74.67283957 154.2717155 71.44194031 154.26834106 C69.20516957 154.26901418 66.9683989 154.26998427 64.73162842 154.27124023 C60.03992518 154.27271654 55.34824095 154.27056459 50.65653992 154.26589966 C44.62792671 154.26019913 38.59935799 154.26348386 32.57074642 154.26947212 C27.95125999 154.27307674 23.33178419 154.27193967 18.71229744 154.26934433 C16.4886277 154.26867495 14.26495701 154.26950385 12.04128838 154.27182388 C8.94035641 154.27434913 5.83949765 154.27051177 2.73857117 154.2649231 C1.81023468 154.26694733 0.88189819 154.26897156 -0.0745697 154.27105713 C-6.40864047 154.24979154 -6.40864047 154.24979154 -7.52290344 153.13552856 C-7.62127554 151.80509231 -7.65368937 150.46959512 -7.65571594 149.13552856 C-7.657005 148.33115356 -7.65829407 147.52677856 -7.65962219 146.69802856 C-7.655755 145.85240356 -7.65188782 145.00677856 -7.64790344 144.13552856 C-7.65177063 143.28990356 -7.65563782 142.44427856 -7.65962219 141.57302856 C-7.65833313 140.76865356 -7.65704407 139.96427856 -7.65571594 139.13552856 C-7.65458801 138.39302856 -7.65346008 137.65052856 -7.65229797 136.88552856 C-7.52290344 135.13552856 -7.52290344 135.13552856 -6.52290344 134.13552856 C-4.46733683 134.04139169 -2.40850163 134.01809859 -0.3507843 134.02200317 C0.61503822 134.02178413 0.61503822 134.02178413 1.60037231 134.02156067 C3.73769958 134.02225971 5.87494068 134.03005166 8.01225281 134.03787231 C9.49055941 134.03973653 10.96886663 134.04116041 12.44717407 134.04216003 C16.34508458 134.04598498 20.24295805 134.05581505 24.14085388 134.06686401 C28.11555988 134.07707865 32.09027185 134.08165776 36.06498718 134.08670044 C43.86904056 134.09743735 51.67306338 134.11451347 59.47709656 134.13552856 C59.465495 133.06431763 59.45389343 131.99310669 59.44194031 130.88943481 C59.43256357 129.49230113 59.42346325 128.09516558 59.41459656 126.69802856 C59.4020282 125.63745239 59.4020282 125.63745239 59.38920593 124.55545044 C59.38056068 122.74859297 59.42489644 120.94165254 59.47709656 119.13552856 C59.80709656 118.80552856 60.13709656 118.47552856 60.47709656 118.13552856 C65.75709656 118.13552856 71.03709656 118.13552856 76.47709656 118.13552856 C76.47709656 91.07552856 76.47709656 64.01552856 76.47709656 36.13552856 C71.19709656 36.13552856 65.91709656 36.13552856 60.47709656 36.13552856 C59.47709656 35.13552856 59.47709656 35.13552856 59.37944031 31.75662231 C59.38611287 30.36205779 59.39807124 28.96751114 59.41459656 27.57302856 C59.41910828 26.8621106 59.42362 26.15119263 59.42826843 25.41873169 C59.44008792 23.65762843 59.45802393 21.89656821 59.47709656 20.13552856 C58.26227097 20.13885948 58.26227097 20.13885948 57.02290344 20.14225769 C49.40056388 20.16227234 41.77823702 20.17750871 34.15587807 20.18734074 C30.23689785 20.19256534 26.3179393 20.19965537 22.39897156 20.21096802 C18.61887269 20.22181185 14.8387947 20.22780859 11.05868149 20.23040581 C9.6145482 20.23225735 8.17041609 20.2358728 6.72629166 20.24125862 C4.70785379 20.24848877 2.68939503 20.24893679 0.67094421 20.24905396 C-1.05447098 20.25238487 -1.05447098 20.25238487 -2.81474304 20.25578308 C-5.52290344 20.13552856 -5.52290344 20.13552856 -7.52290344 19.13552856 C-7.54974332 16.15630263 -7.56966381 13.17731562 -7.58540344 10.19802856 C-7.59378235 9.34789185 -7.60216125 8.49775513 -7.61079407 7.62185669 C-7.61401672 6.81296997 -7.61723938 6.00408325 -7.62055969 5.17068481 C-7.62579651 4.42182007 -7.63103333 3.67295532 -7.63642883 2.90139771 C-7.3607568 -1.38663637 -3.40374921 0.01129494 0 0 Z " fill="#FB1E1F" transform="translate(102.52290344238281,52.864471435546875)"/>
<path d="M0 0 C6.27 0 12.54 0 19 0 C19 10.89 19 21.78 19 33 C23.74117187 32.97679687 28.48234375 32.95359375 33.3671875 32.9296875 C36.36589087 32.91947175 39.36457287 32.90984407 42.36328125 32.90234375 C47.12585897 32.89037535 51.88836 32.87619749 56.65087891 32.84912109 C60.48933886 32.82743415 64.32771659 32.81544018 68.16623306 32.81024551 C69.63270487 32.80654227 71.09917205 32.799311 72.56560898 32.78853989 C74.61529106 32.77407981 76.66463082 32.77201971 78.71435547 32.77294922 C79.88239716 32.768508 81.05043884 32.76406677 82.25387573 32.75949097 C85 33 85 33 87 35 C87.19852102 37.70922801 87.27839477 40.29303179 87.25 43 C87.26160156 44.10601562 87.26160156 44.10601562 87.2734375 45.234375 C87.2533196 50.7466804 87.2533196 50.7466804 85 53 C82.25387573 53.24050903 82.25387573 53.24050903 78.71435547 53.22705078 C78.07032776 53.22734283 77.42630005 53.22763489 76.76275635 53.22793579 C74.63076373 53.22654074 72.49911918 53.21097174 70.3671875 53.1953125 C68.89031159 53.19158298 67.41343322 53.18873572 65.93655396 53.18673706 C62.04682602 53.17909574 58.15724712 53.15944308 54.26757812 53.1373291 C49.60200582 53.11328712 44.93638372 53.10409206 40.27076721 53.09242249 C33.18040778 53.07301884 26.09037544 53.03470004 19 53 C19 63.89 19 74.78 19 86 C16.050625 86.020625 13.10125 86.04125 10.0625 86.0625 C8.66656616 86.07615601 8.66656616 86.07615601 7.24243164 86.09008789 C6.51403076 86.09258545 5.78562988 86.09508301 5.03515625 86.09765625 C4.2862915 86.10289307 3.53742676 86.10812988 2.76586914 86.11352539 C1 86 1 86 0 85 C-0.07320163 82.4672235 -0.09227569 79.96896082 -0.0625 77.4375 C-0.041875 74.983125 -0.02125 72.52875 0 70 C-5.28 70 -10.56 70 -16 70 C-17.53266582 66.93466836 -17.10276471 63.73245728 -17.0625 60.375 C-17.05798828 59.66859375 -17.05347656 58.9621875 -17.04882812 58.234375 C-17.03703875 56.48954725 -17.01910324 54.744763 -17 53 C-18.05960938 53.02320313 -19.11921875 53.04640625 -20.2109375 53.0703125 C-21.5989513 53.08906944 -22.9869727 53.10726972 -24.375 53.125 C-25.07367188 53.14175781 -25.77234375 53.15851563 -26.4921875 53.17578125 C-28.32897486 53.19344267 -30.16601963 53.10303261 -32 53 C-34.55948999 50.44051001 -34.26068731 48.72792805 -34.2734375 45.234375 C-34.26570313 44.49703125 -34.25796875 43.7596875 -34.25 43 C-34.25773437 42.26265625 -34.26546875 41.5253125 -34.2734375 40.765625 C-34.2533196 35.2533196 -34.2533196 35.2533196 -32 33 C-29.41048555 32.85452166 -26.95814609 32.81350948 -24.375 32.875 C-20.724375 32.936875 -20.724375 32.936875 -17 33 C-17 27.72 -17 22.44 -17 17 C-13.93618406 15.46809203 -10.73034134 15.89756387 -7.375 15.9375 C-4.94125 15.958125 -2.5075 15.97875 0 16 C0 10.72 0 5.44 0 0 Z " fill="#FA1E1E" transform="translate(78,87)"/>
<path d="M0 0 C0.33 0 0.66 0 1 0 C1 16.5 1 33 1 50 C6.28 50 11.56 50 17 50 C18 51 18 51 18.12025452 53.01844788 C18.11803391 53.90447189 18.11581329 54.79049591 18.11352539 55.70336914 C18.11341209 57.20481224 18.11341209 57.20481224 18.11329651 58.73658752 C18.10813522 59.8251152 18.10297394 60.91364288 18.09765625 62.03515625 C18.0962413 63.14354355 18.09482635 64.25193085 18.09336853 65.39390564 C18.08775033 68.95013069 18.07519475 72.50629383 18.0625 76.0625 C18.05748734 78.46679597 18.05292403 80.87109292 18.04882812 83.27539062 C18.03777499 89.18361504 18.02101917 95.0918031 18 101 C15.72776124 102.13611938 14.49234589 102.12568845 11.96983337 102.12698364 C11.1271138 102.12980347 10.28439423 102.13262329 9.4161377 102.13552856 C8.02666931 102.13249222 8.02666931 102.13249222 6.60913086 102.12939453 C5.63508804 102.13114685 4.66104523 102.13289917 3.65748596 102.13470459 C0.42658729 102.13911852 -2.80425699 102.13618694 -6.03515625 102.1328125 C-8.27192699 102.13348562 -10.50869765 102.13445571 -12.74546814 102.13571167 C-17.43717138 102.13718798 -22.12885561 102.13503603 -26.82055664 102.13037109 C-32.84916984 102.12467057 -38.87773856 102.1279553 -44.90635014 102.13394356 C-49.52583657 102.13754817 -54.14531237 102.1364111 -58.76479912 102.13381577 C-60.98846886 102.13314639 -63.21213955 102.13397528 -65.43580818 102.13629532 C-68.53674015 102.13882057 -71.63759891 102.1349832 -74.73852539 102.12939453 C-75.66686188 102.13141876 -76.59519836 102.13344299 -77.55166626 102.13552856 C-83.88573703 102.11426297 -83.88573703 102.11426297 -85 101 C-85.0983721 99.66956375 -85.13078592 98.33406656 -85.1328125 97 C-85.13410156 96.195625 -85.13539062 95.39125 -85.13671875 94.5625 C-85.13285156 93.716875 -85.12898438 92.87125 -85.125 92 C-85.12886719 91.154375 -85.13273437 90.30875 -85.13671875 89.4375 C-85.13542969 88.633125 -85.13414063 87.82875 -85.1328125 87 C-85.13168457 86.2575 -85.13055664 85.515 -85.12939453 84.75 C-85 83 -85 83 -84 82 C-81.94443339 81.90586313 -79.88559819 81.88257002 -77.82788086 81.88647461 C-76.86205833 81.88625557 -76.86205833 81.88625557 -75.87672424 81.8860321 C-73.73939697 81.88673115 -71.60215587 81.89452309 -69.46484375 81.90234375 C-67.98653715 81.90420796 -66.50822993 81.90563185 -65.02992249 81.90663147 C-61.13201198 81.91045641 -57.23413851 81.92028648 -53.33624268 81.93133545 C-49.36153667 81.94155008 -45.38682471 81.9461292 -41.41210938 81.95117188 C-33.608056 81.96190878 -25.80403318 81.97898491 -18 82 C-18.01160156 80.92878906 -18.02320313 79.85757813 -18.03515625 78.75390625 C-18.04453299 77.35677257 -18.05363331 75.95963701 -18.0625 74.5625 C-18.07506836 73.50192383 -18.07506836 73.50192383 -18.08789062 72.41992188 C-18.09653588 70.61306441 -18.05220011 68.80612397 -18 67 C-17 66 -17 66 -13.40234375 65.90234375 C-11.91403133 65.9090178 -10.42573568 65.92097817 -8.9375 65.9375 C-8.17888672 65.94201172 -7.42027344 65.94652344 -6.63867188 65.95117188 C-4.75908129 65.9629932 -2.87953101 65.98092922 -1 66 C-1.00523682 65.20867676 -1.01047363 64.41735352 -1.01586914 63.60205078 C-1.13601718 42.37995232 -0.7450024 21.20879161 0 0 Z " fill="#E20103" transform="translate(180,105)"/>
<path d="M0 0 C1.31483871 -0.00637985 2.62967743 -0.0127597 3.98435974 -0.01933289 C5.43106042 -0.02086144 6.87776159 -0.02197546 8.32446289 -0.02270508 C9.79797906 -0.02591593 11.2714949 -0.02927986 12.74501038 -0.03279114 C15.83782694 -0.03878885 18.93061553 -0.04063039 22.0234375 -0.04003906 C25.99275682 -0.03993741 29.96189736 -0.05358953 33.93117428 -0.07081127 C36.97572153 -0.08191269 40.02022531 -0.08395884 43.06479073 -0.08342934 C44.52846455 -0.08461227 45.99213939 -0.08905149 47.45579338 -0.0967617 C49.50045356 -0.10652353 51.54516584 -0.10242921 53.58984375 -0.09765625 C55.33738197 -0.09979378 55.33738197 -0.09979378 57.120224 -0.10197449 C59.85961914 0.14526367 59.85961914 0.14526367 61.85961914 2.14526367 C62.05814016 4.85449168 62.13801391 7.43829546 62.10961914 10.14526367 C62.1212207 11.2512793 62.1212207 11.2512793 62.13305664 12.37963867 C62.11293874 17.89194407 62.11293874 17.89194407 59.85961914 20.14526367 C57.11349487 20.38577271 57.11349487 20.38577271 53.57397461 20.37231445 C52.9299469 20.37260651 52.28591919 20.37289856 51.62237549 20.37319946 C49.49038287 20.37180441 47.35873832 20.35623541 45.22680664 20.34057617 C43.74993074 20.33684665 42.27305236 20.33399939 40.7961731 20.33200073 C36.90644516 20.32435941 33.01686626 20.30470675 29.12719727 20.28259277 C25.15911882 20.26214502 21.19101632 20.25300132 17.22290039 20.24291992 C9.43507198 20.22146123 1.64736643 20.1873194 -6.14038086 20.14526367 C-7.7887703 16.84848479 -7.28310824 13.20210323 -7.26538086 9.58276367 C-7.26924805 8.7893457 -7.27311523 7.99592773 -7.27709961 7.1784668 C-7.26496139 0.07154062 -6.96437805 0.02280203 0 0 Z " fill="#E20102" transform="translate(103.140380859375,119.854736328125)"/>
<path d="M0 0 C0.33 0 0.66 0 1 0 C1.02312589 8.8488239 1.04091634 17.69763747 1.05181217 26.54648495 C1.05704046 30.65494285 1.06413713 34.76338014 1.07543945 38.87182617 C1.08627025 42.83346828 1.09227724 46.79509052 1.09487724 50.75674629 C1.09673114 52.27148311 1.1003511 53.78621879 1.10573006 55.30094719 C1.11294307 57.41541813 1.11399083 59.52980594 1.11352539 61.64428711 C1.115746 62.85007919 1.11796661 64.05587128 1.12025452 65.29820251 C1 68 1 68 0 69 C-2.09671688 69.28950484 -4.20361206 69.50687222 -6.3125 69.6875 C-8.03919922 69.84798828 -8.03919922 69.84798828 -9.80078125 70.01171875 C-12.93719729 70.00023005 -14.40644303 69.67140338 -17 68 C-16.98839844 69.05960937 -16.97679687 70.11921875 -16.96484375 71.2109375 C-16.95546524 72.59895658 -16.94636511 73.98697755 -16.9375 75.375 C-16.92912109 76.07367188 -16.92074219 76.77234375 -16.91210938 77.4921875 C-16.88671875 82.7734375 -16.88671875 82.7734375 -18 85 C-28.56 85 -39.12 85 -50 85 C-50 90.28 -50 95.56 -50 101 C-27.89 100.67 -5.78 100.34 17 100 C17 83.83 17 67.66 17 51 C17.33 51 17.66 51 18 51 C18 67.5 18 84 18 101 C15.72776124 102.13611938 14.49234589 102.12568845 11.96983337 102.12698364 C11.1271138 102.12980347 10.28439423 102.13262329 9.4161377 102.13552856 C8.02666931 102.13249222 8.02666931 102.13249222 6.60913086 102.12939453 C5.63508804 102.13114685 4.66104523 102.13289917 3.65748596 102.13470459 C0.42658729 102.13911852 -2.80425699 102.13618694 -6.03515625 102.1328125 C-8.27192699 102.13348562 -10.50869765 102.13445571 -12.74546814 102.13571167 C-17.43717138 102.13718798 -22.12885561 102.13503603 -26.82055664 102.13037109 C-32.84916984 102.12467057 -38.87773856 102.1279553 -44.90635014 102.13394356 C-49.52583657 102.13754817 -54.14531237 102.1364111 -58.76479912 102.13381577 C-60.98846886 102.13314639 -63.21213955 102.13397528 -65.43580818 102.13629532 C-68.53674015 102.13882057 -71.63759891 102.1349832 -74.73852539 102.12939453 C-75.66686188 102.13141876 -76.59519836 102.13344299 -77.55166626 102.13552856 C-83.88573703 102.11426297 -83.88573703 102.11426297 -85 101 C-85.0983721 99.66956375 -85.13078592 98.33406656 -85.1328125 97 C-85.13410156 96.195625 -85.13539062 95.39125 -85.13671875 94.5625 C-85.13285156 93.716875 -85.12898438 92.87125 -85.125 92 C-85.12886719 91.154375 -85.13273437 90.30875 -85.13671875 89.4375 C-85.13542969 88.633125 -85.13414063 87.82875 -85.1328125 87 C-85.13168457 86.2575 -85.13055664 85.515 -85.12939453 84.75 C-85 83 -85 83 -84 82 C-81.94443339 81.90586313 -79.88559819 81.88257002 -77.82788086 81.88647461 C-76.86205833 81.88625557 -76.86205833 81.88625557 -75.87672424 81.8860321 C-73.73939697 81.88673115 -71.60215587 81.89452309 -69.46484375 81.90234375 C-67.98653715 81.90420796 -66.50822993 81.90563185 -65.02992249 81.90663147 C-61.13201198 81.91045641 -57.23413851 81.92028648 -53.33624268 81.93133545 C-49.36153667 81.94155008 -45.38682471 81.9461292 -41.41210938 81.95117188 C-33.608056 81.96190878 -25.80403318 81.97898491 -18 82 C-18.01160156 80.92878906 -18.02320313 79.85757813 -18.03515625 78.75390625 C-18.04453299 77.35677257 -18.05363331 75.95963701 -18.0625 74.5625 C-18.07506836 73.50192383 -18.07506836 73.50192383 -18.08789062 72.41992188 C-18.09653588 70.61306441 -18.05220011 68.80612397 -18 67 C-17 66 -17 66 -13.40234375 65.90234375 C-11.91403133 65.9090178 -10.42573568 65.92097817 -8.9375 65.9375 C-8.17888672 65.94201172 -7.42027344 65.94652344 -6.63867188 65.95117188 C-4.75908129 65.9629932 -2.87953101 65.98092922 -1 66 C-1.00523682 65.20867676 -1.01047363 64.41735352 -1.01586914 63.60205078 C-1.13601718 42.37995232 -0.7450024 21.20879161 0 0 Z " fill="#FC1D1E" transform="translate(180,105)"/>
<path d="M0 0 C1.11474701 0.00444122 2.22949402 0.00888245 3.37802124 0.01345825 C5.26975571 0.01368484 5.26975571 0.01368484 7.19970703 0.01391602 C8.58124956 0.02413006 9.96279048 0.03456206 11.34432983 0.04519653 C12.7539449 0.04892615 14.16356256 0.05177337 15.57318115 0.05377197 C19.28536116 0.06141248 22.99738494 0.08106442 26.70950317 0.10317993 C30.4966114 0.12362945 34.28374483 0.13277177 38.07089233 0.14285278 C45.50325526 0.16431004 52.93548942 0.19845087 60.36776733 0.24050903 C60.39242022 4.92190157 60.41060473 9.60325662 60.42269897 14.28469849 C60.42773891 15.87845518 60.43457083 17.47220722 60.44320679 19.06594849 C60.45528732 21.35201156 60.46099889 23.6380137 60.46542358 25.92410278 C60.47058487 26.64077621 60.47574615 27.35744965 60.48106384 28.09584045 C60.48125996 29.81114576 60.42968741 31.5263217 60.36776733 33.24050903 C60.03776733 33.57050903 59.70776733 33.90050903 59.36776733 34.24050903 C54.41776733 34.24050903 49.46776733 34.24050903 44.36776733 34.24050903 C44.36776733 45.46050903 44.36776733 56.68050903 44.36776733 68.24050903 C44.03776733 68.24050903 43.70776733 68.24050903 43.36776733 68.24050903 C43.36776733 51.74050903 43.36776733 35.24050903 43.36776733 18.24050903 C38.08776733 18.24050903 32.80776733 18.24050903 27.36776733 18.24050903 C27.03776733 17.91050903 26.70776733 17.58050903 26.36776733 17.24050903 C26.36776733 12.29050903 26.36776733 7.34050903 26.36776733 2.24050903 C16.13776733 2.24050903 5.90776733 2.24050903 -4.63223267 2.24050903 C-2.63223267 0.24050903 -2.63223267 0.24050903 0 0 Z " fill="#FC3E3D" transform="translate(135.63223266601563,70.75949096679688)"/>
<path d="M0 0 C0.93925827 0.00202423 1.87851654 0.00404846 2.84623718 0.00613403 C3.82988754 0.00438171 4.8135379 0.00262939 5.82699585 0.00082397 C9.09579709 -0.00359648 12.36454472 -0.00065587 15.63334656 0.00271606 C17.89396678 0.00204308 20.15458693 0.0010731 22.41520691 -0.00018311 C27.15996487 -0.00166034 31.90470405 0.0004953 36.64945984 0.00515747 C42.7464828 0.01085477 48.84346175 0.0075759 54.94048309 0.00158501 C59.61058385 -0.00201991 64.28067408 -0.00088234 68.95077515 0.0017128 C71.19956467 0.00238226 73.44835513 0.00155298 75.69714355 -0.00076675 C78.83410694 -0.00329214 81.97099797 0.00054571 85.10795593 0.00613403 C86.51684334 0.00309769 86.51684334 0.00309769 87.95419312 0 C94.36283431 0.02126631 94.36283431 0.02126631 95.47709656 1.13552856 C95.57245897 4.30165519 95.60260292 7.44593484 95.59062195 10.61233521 C95.59076797 11.60734543 95.590914 12.60235565 95.59106445 13.6275177 C95.59036487 16.93359519 95.58257035 20.23961711 95.57475281 23.54568481 C95.57288879 25.8311205 95.57146481 28.11655658 95.57046509 30.4019928 C95.56663863 36.43051244 95.55680726 42.45900815 95.54576111 48.48751831 C95.53554973 54.63385698 95.53096806 60.78019949 95.52592468 66.92654419 C95.5151851 78.99621618 95.49810715 91.06587039 95.47709656 103.13552856 C95.14709656 103.13552856 94.81709656 103.13552856 94.47709656 103.13552856 C94.47709656 69.80552856 94.47709656 36.47552856 94.47709656 2.13552856 C72.36709656 2.13552856 50.25709656 2.13552856 27.47709656 2.13552856 C27.47709656 7.08552856 27.47709656 12.03552856 27.47709656 17.13552856 C26.81709656 18.12552856 26.15709656 19.11552856 25.47709656 20.13552856 C22.43608093 20.49197388 22.43608093 20.49197388 18.57084656 20.46365356 C17.89034241 20.4617804 17.20983826 20.45990723 16.50871277 20.45797729 C15.06957604 20.45125313 13.6304577 20.4373312 12.19145203 20.41677856 C9.98571332 20.38565017 7.78068929 20.375811 5.57475281 20.36990356 C-5.19555111 20.29920473 -5.19555111 20.29920473 -7.52290344 19.13552856 C-7.54974332 16.15630263 -7.56966381 13.17731562 -7.58540344 10.19802856 C-7.59378235 9.34789185 -7.60216125 8.49775513 -7.61079407 7.62185669 C-7.61401672 6.81296997 -7.61723938 6.00408325 -7.62055969 5.17068481 C-7.62579651 4.42182007 -7.63103333 3.67295532 -7.63642883 2.90139771 C-7.3607568 -1.38663637 -3.40374921 0.01129494 0 0 Z " fill="#FB3F3E" transform="translate(102.52290344238281,52.864471435546875)"/>
<path d="M0 0 C6.27 0 12.54 0 19 0 C19 10.89 19 21.78 19 33 C18.67 33 18.34 33 18 33 C18 28.05 18 23.1 18 18 C12.39 18 6.78 18 1 18 C1.0395679 22.89153471 1.0395679 22.89153471 1.09008789 27.78295898 C1.09724913 29.52221717 1.05024702 31.26145304 1 33 C0 34 0 34 -3.23828125 34.02734375 C-5.28121814 33.98917679 -7.32294673 33.93717199 -9.36523438 33.87304688 C-13.24710736 33.80853872 -15.61297231 34.21990569 -19 36 C-23.01783984 36.26022279 -26.9685883 36.08763938 -31 36 C-31 40.62 -31 45.24 -31 50 C-29.39318359 49.98259766 -29.39318359 49.98259766 -27.75390625 49.96484375 C-26.35677257 49.95546701 -24.95963701 49.94636669 -23.5625 49.9375 C-22.85544922 49.92912109 -22.14839844 49.92074219 -21.41992188 49.91210938 C-19.61306441 49.90346412 -17.80612397 49.94779989 -16 50 C-15 51 -15 51 -14.90234375 54.59765625 C-14.9090178 56.08596867 -14.92097817 57.57426432 -14.9375 59.0625 C-14.94201172 59.82111328 -14.94652344 60.57972656 -14.95117188 61.36132812 C-14.9629932 63.24091871 -14.98092922 65.12046899 -15 67 C-15.99 67.495 -15.99 67.495 -17 68 C-17 63.05 -17 58.1 -17 53 C-21.84666111 53.07901826 -21.84666111 53.07901826 -26.69287109 53.18017578 C-28.46287275 53.1948117 -30.23272455 53.09928514 -32 53 C-34.55948999 50.44051001 -34.26068731 48.72792805 -34.2734375 45.234375 C-34.26570313 44.49703125 -34.25796875 43.7596875 -34.25 43 C-34.25773437 42.26265625 -34.26546875 41.5253125 -34.2734375 40.765625 C-34.2533196 35.2533196 -34.2533196 35.2533196 -32 33 C-29.41048555 32.85452166 -26.95814609 32.81350948 -24.375 32.875 C-20.724375 32.936875 -20.724375 32.936875 -17 33 C-17 27.72 -17 22.44 -17 17 C-13.93618406 15.46809203 -10.73034134 15.89756387 -7.375 15.9375 C-4.94125 15.958125 -2.5075 15.97875 0 16 C0 10.72 0 5.44 0 0 Z " fill="#FB3F3E" transform="translate(78,87)"/>
<path d="M0 0 C5.28 0 10.56 0 16 0 C16 5.61 16 11.22 16 17 C21.61 17 27.22 17 33 17 C33 12.05 33 7.1 33 2 C33.33 2 33.66 2 34 2 C34 12.89 34 23.78 34 35 C31.050625 35.020625 28.10125 35.04125 25.0625 35.0625 C24.13187744 35.071604 23.20125488 35.08070801 22.24243164 35.09008789 C21.51403076 35.09258545 20.78562988 35.09508301 20.03515625 35.09765625 C19.2862915 35.10289307 18.53742676 35.10812988 17.76586914 35.11352539 C16 35 16 35 15 34 C14.92679837 31.4672235 14.90772431 28.96896082 14.9375 26.4375 C14.9684375 22.7559375 14.9684375 22.7559375 15 19 C9.72 19 4.44 19 -1 19 C-0.67 12.73 -0.34 6.46 0 0 Z " fill="#DE0202" transform="translate(63,138)"/>
<path d="M0 0 C2.45862401 -0.05383848 4.9160755 -0.09359038 7.375 -0.125 C8.42300781 -0.15013672 8.42300781 -0.15013672 9.4921875 -0.17578125 C11.32897486 -0.19344267 13.16601963 -0.10303261 15 0 C17.55948999 2.55948999 17.26068731 4.27207195 17.2734375 7.765625 C17.26570313 8.50296875 17.25796875 9.2403125 17.25 10 C17.26160156 11.10601562 17.26160156 11.10601562 17.2734375 12.234375 C17.2533196 17.7466804 17.2533196 17.7466804 15 20 C12.25514407 20.14507695 9.61519457 20.18652423 6.875 20.125 C6.12089844 20.11597656 5.36679688 20.10695312 4.58984375 20.09765625 C2.72642746 20.0740687 0.86317407 20.03819719 -1 20 C-1 19.34 -1 18.68 -1 18 C-6.61 17.67 -12.22 17.34 -18 17 C-18 12.38 -18 7.76 -18 3 C-9.585 2.505 -9.585 2.505 -1 2 C-0.67 1.34 -0.34 0.68 0 0 Z " fill="#FB3F3C" transform="translate(148,120)"/>
<path d="M0 0 C0.33 0 0.66 0 1 0 C1.02312589 8.8488239 1.04091634 17.69763747 1.05181217 26.54648495 C1.05704046 30.65494285 1.06413713 34.76338014 1.07543945 38.87182617 C1.08627025 42.83346828 1.09227724 46.79509052 1.09487724 50.75674629 C1.09673114 52.27148311 1.1003511 53.78621879 1.10573006 55.30094719 C1.11294307 57.41541813 1.11399083 59.52980594 1.11352539 61.64428711 C1.115746 62.85007919 1.11796661 64.05587128 1.12025452 65.29820251 C1 68 1 68 0 69 C-2.09671688 69.28950484 -4.20361206 69.50687222 -6.3125 69.6875 C-8.03919922 69.84798828 -8.03919922 69.84798828 -9.80078125 70.01171875 C-12.93719729 70.00023005 -14.40644303 69.67140338 -17 68 C-16.98839844 69.05960937 -16.97679687 70.11921875 -16.96484375 71.2109375 C-16.95546524 72.59895658 -16.94636511 73.98697755 -16.9375 75.375 C-16.92912109 76.07367188 -16.92074219 76.77234375 -16.91210938 77.4921875 C-16.88671875 82.7734375 -16.88671875 82.7734375 -18 85 C-28.89 85 -39.78 85 -51 85 C-51 84.67 -51 84.34 -51 84 C-61.56 84 -72.12 84 -83 84 C-83 89.28 -83 94.56 -83 100 C-50 100 -17 100 17 100 C17 83.83 17 67.66 17 51 C17.33 51 17.66 51 18 51 C18 67.5 18 84 18 101 C15.72776124 102.13611938 14.49234589 102.12568845 11.96983337 102.12698364 C11.1271138 102.12980347 10.28439423 102.13262329 9.4161377 102.13552856 C8.02666931 102.13249222 8.02666931 102.13249222 6.60913086 102.12939453 C5.63508804 102.13114685 4.66104523 102.13289917 3.65748596 102.13470459 C0.42658729 102.13911852 -2.80425699 102.13618694 -6.03515625 102.1328125 C-8.27192699 102.13348562 -10.50869765 102.13445571 -12.74546814 102.13571167 C-17.43717138 102.13718798 -22.12885561 102.13503603 -26.82055664 102.13037109 C-32.84916984 102.12467057 -38.87773856 102.1279553 -44.90635014 102.13394356 C-49.52583657 102.13754817 -54.14531237 102.1364111 -58.76479912 102.13381577 C-60.98846886 102.13314639 -63.21213955 102.13397528 -65.43580818 102.13629532 C-68.53674015 102.13882057 -71.63759891 102.1349832 -74.73852539 102.12939453 C-75.66686188 102.13141876 -76.59519836 102.13344299 -77.55166626 102.13552856 C-83.88573703 102.11426297 -83.88573703 102.11426297 -85 101 C-85.0983721 99.66956375 -85.13078592 98.33406656 -85.1328125 97 C-85.13410156 96.195625 -85.13539062 95.39125 -85.13671875 94.5625 C-85.13285156 93.716875 -85.12898438 92.87125 -85.125 92 C-85.12886719 91.154375 -85.13273437 90.30875 -85.13671875 89.4375 C-85.13542969 88.633125 -85.13414063 87.82875 -85.1328125 87 C-85.13168457 86.2575 -85.13055664 85.515 -85.12939453 84.75 C-85 83 -85 83 -84 82 C-81.94443339 81.90586313 -79.88559819 81.88257002 -77.82788086 81.88647461 C-76.86205833 81.88625557 -76.86205833 81.88625557 -75.87672424 81.8860321 C-73.73939697 81.88673115 -71.60215587 81.89452309 -69.46484375 81.90234375 C-67.98653715 81.90420796 -66.50822993 81.90563185 -65.02992249 81.90663147 C-61.13201198 81.91045641 -57.23413851 81.92028648 -53.33624268 81.93133545 C-49.36153667 81.94155008 -45.38682471 81.9461292 -41.41210938 81.95117188 C-33.608056 81.96190878 -25.80403318 81.97898491 -18 82 C-18.01160156 80.92878906 -18.02320313 79.85757813 -18.03515625 78.75390625 C-18.04453299 77.35677257 -18.05363331 75.95963701 -18.0625 74.5625 C-18.07506836 73.50192383 -18.07506836 73.50192383 -18.08789062 72.41992188 C-18.09653588 70.61306441 -18.05220011 68.80612397 -18 67 C-17 66 -17 66 -13.40234375 65.90234375 C-11.91403133 65.9090178 -10.42573568 65.92097817 -8.9375 65.9375 C-8.17888672 65.94201172 -7.42027344 65.94652344 -6.63867188 65.95117188 C-4.75908129 65.9629932 -2.87953101 65.98092922 -1 66 C-1.00523682 65.20867676 -1.01047363 64.41735352 -1.01586914 63.60205078 C-1.13601718 42.37995232 -0.7450024 21.20879161 0 0 Z " fill="#B71310" transform="translate(180,105)"/>
<path d="M0 0 C0 11.22 0 22.44 0 34 C-4.95 34 -9.9 34 -15 34 C-15 23.11 -15 12.22 -15 1 C-1 0 -1 0 0 0 Z " fill="#F91F1F" transform="translate(196,121)"/>
<path d="M0 0 C0.93925827 0.00202423 1.87851654 0.00404846 2.84623718 0.00613403 C3.82988754 0.00438171 4.8135379 0.00262939 5.82699585 0.00082397 C9.09579709 -0.00359648 12.36454472 -0.00065587 15.63334656 0.00271606 C17.89396678 0.00204308 20.15458693 0.0010731 22.41520691 -0.00018311 C27.15996487 -0.00166034 31.90470405 0.0004953 36.64945984 0.00515747 C42.7464828 0.01085477 48.84346175 0.0075759 54.94048309 0.00158501 C59.61058385 -0.00201991 64.28067408 -0.00088234 68.95077515 0.0017128 C71.19956467 0.00238226 73.44835513 0.00155298 75.69714355 -0.00076675 C78.83410694 -0.00329214 81.97099797 0.00054571 85.10795593 0.00613403 C86.51684334 0.00309769 86.51684334 0.00309769 87.95419312 0 C94.36283431 0.02126631 94.36283431 0.02126631 95.47709656 1.13552856 C95.57245897 4.30165519 95.60260292 7.44593484 95.59062195 10.61233521 C95.59076797 11.60734543 95.590914 12.60235565 95.59106445 13.6275177 C95.59036487 16.93359519 95.58257035 20.23961711 95.57475281 23.54568481 C95.57288879 25.8311205 95.57146481 28.11655658 95.57046509 30.4019928 C95.56663863 36.43051244 95.55680726 42.45900815 95.54576111 48.48751831 C95.53554973 54.63385698 95.53096806 60.78019949 95.52592468 66.92654419 C95.5151851 78.99621618 95.49810715 91.06587039 95.47709656 103.13552856 C95.14709656 103.13552856 94.81709656 103.13552856 94.47709656 103.13552856 C94.47709656 69.80552856 94.47709656 36.47552856 94.47709656 2.13552856 C61.47709656 2.13552856 28.47709656 2.13552856 -5.52290344 2.13552856 C-5.52290344 7.08552856 -5.52290344 12.03552856 -5.52290344 17.13552856 C5.03709656 17.13552856 15.59709656 17.13552856 26.47709656 17.13552856 C25.98209656 18.62052856 25.98209656 18.62052856 25.47709656 20.13552856 C21.09884536 20.16021938 16.72063088 20.17838414 12.34233093 20.19046021 C10.8524149 20.19549371 9.36250381 20.20232099 7.87260437 20.21096802 C5.73294352 20.22307662 3.59334788 20.22876663 1.45365906 20.23318481 C0.16540222 20.23842163 -1.12285461 20.24365845 -2.45014954 20.24905396 C-5.52290344 20.13552856 -5.52290344 20.13552856 -7.52290344 19.13552856 C-7.54974332 16.15630263 -7.56966381 13.17731562 -7.58540344 10.19802856 C-7.59378235 9.34789185 -7.60216125 8.49775513 -7.61079407 7.62185669 C-7.61401672 6.81296997 -7.61723938 6.00408325 -7.62055969 5.17068481 C-7.62579651 4.42182007 -7.63103333 3.67295532 -7.63642883 2.90139771 C-7.3607568 -1.38663637 -3.40374921 0.01129494 0 0 Z " fill="#B53C3A" transform="translate(102.52290344238281,52.864471435546875)"/>
<path d="M0 0 C6.27 0 12.54 0 19 0 C19 10.89 19 21.78 19 33 C18.67 33 18.34 33 18 33 C17.16526058 22.62538143 16.90789398 12.40798025 17 2 C12.05 2 7.1 2 2 2 C2 6.95 2 11.9 2 17 C1.34 17 0.68 17 0 17 C0 17.66 0 18.32 0 19 C-4.62 19.33 -9.24 19.66 -14 20 C-14.0825 22.26875 -14.165 24.5375 -14.25 26.875 C-14.390625 30.7421875 -14.390625 30.7421875 -15 34 C-19.09858427 37.55726182 -25.98337253 36.10905712 -31 36 C-31 40.62 -31 45.24 -31 50 C-29.39318359 49.98259766 -29.39318359 49.98259766 -27.75390625 49.96484375 C-26.35677257 49.95546701 -24.95963701 49.94636669 -23.5625 49.9375 C-22.85544922 49.92912109 -22.14839844 49.92074219 -21.41992188 49.91210938 C-19.61306441 49.90346412 -17.80612397 49.94779989 -16 50 C-15 51 -15 51 -14.90234375 54.59765625 C-14.9090178 56.08596867 -14.92097817 57.57426432 -14.9375 59.0625 C-14.94201172 59.82111328 -14.94652344 60.57972656 -14.95117188 61.36132812 C-14.9629932 63.24091871 -14.98092922 65.12046899 -15 67 C-15.99 67.495 -15.99 67.495 -17 68 C-17 63.05 -17 58.1 -17 53 C-21.84666111 53.07901826 -21.84666111 53.07901826 -26.69287109 53.18017578 C-28.46287275 53.1948117 -30.23272455 53.09928514 -32 53 C-34.55948999 50.44051001 -34.26068731 48.72792805 -34.2734375 45.234375 C-34.26570313 44.49703125 -34.25796875 43.7596875 -34.25 43 C-34.25773437 42.26265625 -34.26546875 41.5253125 -34.2734375 40.765625 C-34.2533196 35.2533196 -34.2533196 35.2533196 -32 33 C-29.41048555 32.85452166 -26.95814609 32.81350948 -24.375 32.875 C-20.724375 32.936875 -20.724375 32.936875 -17 33 C-17 27.72 -17 22.44 -17 17 C-13.93618406 15.46809203 -10.73034134 15.89756387 -7.375 15.9375 C-4.94125 15.958125 -2.5075 15.97875 0 16 C0 10.72 0 5.44 0 0 Z " fill="#BD3E3B" transform="translate(78,87)"/>
<path d="M0 0 C0.33 0 0.66 0 1 0 C1 16.5 1 33 1 50 C-1.27223876 51.13611938 -2.50765411 51.12568845 -5.03016663 51.12698364 C-5.8728862 51.12980347 -6.71560577 51.13262329 -7.5838623 51.13552856 C-8.97333069 51.13249222 -8.97333069 51.13249222 -10.39086914 51.12939453 C-11.36491196 51.13114685 -12.33895477 51.13289917 -13.34251404 51.13470459 C-16.57341271 51.13911852 -19.80425699 51.13618694 -23.03515625 51.1328125 C-25.27192699 51.13348562 -27.50869765 51.13445571 -29.74546814 51.13571167 C-34.43717138 51.13718798 -39.12885561 51.13503603 -43.82055664 51.13037109 C-49.84916984 51.12467057 -55.87773856 51.1279553 -61.90635014 51.13394356 C-66.52583657 51.13754817 -71.14531237 51.1364111 -75.76479912 51.13381577 C-77.98846886 51.13314639 -80.21213955 51.13397528 -82.43580818 51.13629532 C-85.53674015 51.13882057 -88.63759891 51.1349832 -91.73852539 51.12939453 C-92.66686188 51.13141876 -93.59519836 51.13344299 -94.55166626 51.13552856 C-100.88573703 51.11426297 -100.88573703 51.11426297 -102 50 C-102.0983721 48.66956375 -102.13078592 47.33406656 -102.1328125 46 C-102.13410156 45.195625 -102.13539062 44.39125 -102.13671875 43.5625 C-102.13285156 42.716875 -102.12898438 41.87125 -102.125 41 C-102.12886719 40.154375 -102.13273437 39.30875 -102.13671875 38.4375 C-102.13542969 37.633125 -102.13414063 36.82875 -102.1328125 36 C-102.13168457 35.2575 -102.13055664 34.515 -102.12939453 33.75 C-102 32 -102 32 -101 31 C-99.65732587 30.91368126 -98.31025678 30.89293527 -96.96484375 30.90234375 C-96.15595703 30.90556641 -95.34707031 30.90878906 -94.51367188 30.91210938 C-93.66353516 30.92048828 -92.81339844 30.92886719 -91.9375 30.9375 C-91.08349609 30.94201172 -90.22949219 30.94652344 -89.34960938 30.95117188 C-87.23304337 30.96299627 -85.11651315 30.98093231 -83 31 C-86.7367843 33.49118953 -88.74451819 33.2065226 -93.1875 33.125 C-95.435625 33.08375 -97.68375 33.0425 -100 33 C-100 38.28 -100 43.56 -100 49 C-67 49 -34 49 0 49 C0 32.83 0 16.66 0 0 Z " fill="#AB1E1B" transform="translate(197,156)"/>
<path d="M0 0 C5.28 0 10.56 0 16 0 C16.125 13.75 16.125 13.75 15 16 C10.05 16 5.1 16 0 16 C0 10.72 0 5.44 0 0 Z " fill="#E20203" transform="translate(63,138)"/>
<path d="M0 0 C0 5.61 0 11.22 0 17 C-4.95 17 -9.9 17 -15 17 C-15 11.72 -15 6.44 -15 1 C-1.125 0 -1.125 0 0 0 Z " fill="#FB3E3D" transform="translate(196,121)"/>
<path d="M0 0 C5.28 0 10.56 0 16 0 C16 4.62 16 9.24 16 14 C10.72 14 5.44 14 0 14 C0 9.38 0 4.76 0 0 Z " fill="#FA1E1E" transform="translate(130,123)"/>
<path d="M0 0 C4.95 0 9.9 0 15 0 C15 4.62 15 9.24 15 14 C10.05 14 5.1 14 0 14 C-1.125 3.375 -1.125 3.375 0 0 Z " fill="#FB3F3E" transform="translate(47,123)"/>
<path d="M0 0 C8.44040261 -0.02314265 16.88079202 -0.04092492 25.32121849 -0.05181217 C29.2401987 -0.05703678 33.15915726 -0.0641268 37.078125 -0.07543945 C40.85822386 -0.08628329 44.63830186 -0.09228002 48.41841507 -0.09487724 C49.86254836 -0.09672878 51.30668047 -0.10034424 52.7508049 -0.10573006 C54.76924277 -0.1129602 56.78770153 -0.11340823 58.80615234 -0.11352539 C60.53156754 -0.11685631 60.53156754 -0.11685631 62.2918396 -0.12025452 C65 0 65 0 67 1 C67 34 67 67 67 101 C66.67 101 66.34 101 66 101 C65.29323089 84.42288093 64.95546621 67.85789181 64.96875 51.265625 C64.96951286 50.23910859 64.96951286 50.23910859 64.97029114 49.19185448 C64.97699467 42.22292981 64.99537103 35.2541045 65.02805328 28.28525352 C65.03692991 26.27621462 65.04345262 24.26716576 65.04992676 22.25811768 C65.05814786 19.76253456 65.07058629 17.26696085 65.08776855 14.77142334 C65.09103149 13.65906311 65.09429443 12.54670288 65.09765625 11.40063477 C65.10551147 9.93896629 65.10551147 9.93896629 65.11352539 8.44776917 C65.10472974 5.86096197 65.10472974 5.86096197 64 3 C49.58561953 2.19381553 35.18324979 1.73090742 20.75 1.4375 C18.72134859 1.39414026 16.6927027 1.35052163 14.6640625 1.30664062 C9.77609976 1.20145875 4.88807701 1.09972395 0 1 C0 0.67 0 0.34 0 0 Z " fill="#D32424" transform="translate(130,54)"/>
<path d="M0 0 C1.23999756 0.00410889 2.47999512 0.00821777 3.75756836 0.01245117 C4.41824814 0.01290939 5.07892792 0.01336761 5.7596283 0.01383972 C7.1558512 0.01686071 8.55207078 0.02474251 9.94824219 0.03710938 C12.09248709 0.05537796 14.2363006 0.05761898 16.38061523 0.05737305 C26.88747999 0.0954878 26.88747999 0.0954878 28.03491211 1.24291992 C28.27905227 4.31275644 28.41901885 7.38148722 28.55834961 10.45776367 C28.71561523 11.37686523 28.87288086 12.2959668 29.03491211 13.24291992 C33.0977916 15.95150625 36.52974341 15.62151358 41.32006836 15.80151367 C42.2159668 15.94717773 43.11186523 16.0928418 44.03491211 16.24291992 C46.52969654 19.98509657 46.10487496 21.39311692 45.69506836 25.80932617 C45.58168162 27.16602276 45.47129354 28.5229725 45.36352539 29.88012695 C45.30626282 30.59291809 45.24900024 31.30570923 45.19000244 32.0401001 C44.9296109 35.73856175 44.82159671 39.43957248 44.71850586 43.14526367 C44.68667709 44.25812241 44.68667709 44.25812241 44.65420532 45.39346313 C44.59131618 47.65572628 44.53177569 49.91806181 44.47241211 52.18041992 C44.42905827 53.75008875 44.38543974 55.31975029 44.34155273 56.8894043 C44.23630291 60.67383287 44.13458221 64.45834046 44.03491211 68.24291992 C43.70491211 68.24291992 43.37491211 68.24291992 43.03491211 68.24291992 C43.03491211 51.74291992 43.03491211 35.24291992 43.03491211 18.24291992 C37.75491211 18.24291992 32.47491211 18.24291992 27.03491211 18.24291992 C26.70491211 17.91291992 26.37491211 17.58291992 26.03491211 17.24291992 C26.03491211 12.29291992 26.03491211 7.34291992 26.03491211 2.24291992 C15.80491211 2.24291992 5.57491211 2.24291992 -4.96508789 2.24291992 C-2.96508789 0.24291992 -2.96508789 0.24291992 0 0 Z " fill="#B43535" transform="translate(135.965087890625,70.757080078125)"/>
<path d="M0 0 C0.33 0 0.66 0 1 0 C1 16.5 1 33 1 50 C-2.69493758 50.92373439 -5.46306977 51.12107386 -9.23730469 51.11352539 C-10.49830994 51.11344986 -11.75931519 51.11337433 -13.05853271 51.11329651 C-14.42964721 51.10819028 -15.80076131 51.1029743 -17.171875 51.09765625 C-18.57863311 51.09579028 -19.98539188 51.09436722 -21.39215088 51.09336853 C-25.08780727 51.08955744 -28.78342413 51.0797392 -32.47906494 51.06866455 C-36.25296494 51.05842014 -40.02687135 51.05386442 -43.80078125 51.04882812 C-51.20053882 51.03811564 -58.60026386 51.02105616 -66 51 C-66 50.34 -66 49.68 -66 49 C-44.88 49 -23.76 49 -2 49 C-2 48.34 -2 47.68 -2 47 C-1.34 47 -0.68 47 0 47 C0 31.49 0 15.98 0 0 Z " fill="#C30806" transform="translate(196,155)"/>
<path d="M0 0 C0.33 0 0.66 0 1 0 C1 10.89 1 21.78 1 33 C-1.949375 33.020625 -4.89875 33.04125 -7.9375 33.0625 C-8.86812256 33.071604 -9.79874512 33.08070801 -10.75756836 33.09008789 C-11.48596924 33.09258545 -12.21437012 33.09508301 -12.96484375 33.09765625 C-13.7137085 33.10289307 -14.46257324 33.10812988 -15.23413086 33.11352539 C-17 33 -17 33 -18 32 C-18.07320163 29.4672235 -18.09227569 26.96896082 -18.0625 24.4375 C-18.0315625 20.7559375 -18.0315625 20.7559375 -18 17 C-23.28 17 -28.56 17 -34 17 C-34 16.34 -34 15.68 -34 15 C-31.37472811 14.94617894 -28.75055287 14.90641687 -26.125 14.875 C-25.37863281 14.85824219 -24.63226563 14.84148437 -23.86328125 14.82421875 C-21.90805539 14.8066041 -19.95257979 14.89679811 -18 15 C-15.31907309 17.68092691 -15.61329743 19.39167363 -15.375 23.125 C-15.30023438 24.22070312 -15.22546875 25.31640625 -15.1484375 26.4453125 C-15.09945312 27.28835937 -15.05046875 28.13140625 -15 29 C-13.18757948 29.02687279 -11.37504767 29.04633715 -9.5625 29.0625 C-8.55316406 29.07410156 -7.54382813 29.08570313 -6.50390625 29.09765625 C-4.05978933 29.28612676 -4.05978933 29.28612676 -3 28 C-2.76518307 25.81707226 -2.58636677 23.62796826 -2.4375 21.4375 C-2.35371094 20.23996094 -2.26992187 19.04242188 -2.18359375 17.80859375 C-2.09271484 16.41833984 -2.09271484 16.41833984 -2 15 C-1.34 15 -0.68 15 0 15 C0 10.05 0 5.1 0 0 Z " fill="#AC110E" transform="translate(96,140)"/>
<path d="M0 0 C14.85 0 29.7 0 45 0 C45 0.33 45 0.66 45 1 C43.73724243 1.03758423 43.73724243 1.03758423 42.44897461 1.07592773 C39.29733856 1.17160279 36.14583774 1.27080076 32.99438477 1.37231445 C31.6357042 1.41537294 30.27697959 1.45706565 28.91821289 1.49731445 C26.95447697 1.55572893 24.99090636 1.61961803 23.02734375 1.68359375 C21.84906006 1.72025146 20.67077637 1.75690918 19.45678711 1.79467773 C14.22443585 2.10546292 9.1236357 2.91316818 4 4 C3.67 6.97 3.34 9.94 3 13 C12.9 13.33 22.8 13.66 33 14 C33 14.66 33 15.32 33 16 C32.14768799 16.02505615 31.29537598 16.0501123 30.41723633 16.07592773 C27.23955034 16.17135569 24.06201106 16.27057124 20.88452148 16.37231445 C19.51217224 16.4154884 18.13977533 16.45717501 16.76733398 16.49731445 C14.78877932 16.55544392 12.8104003 16.6194571 10.83203125 16.68359375 C9.64327393 16.72025146 8.4545166 16.75690918 7.22973633 16.79467773 C4.38595153 16.97546411 1.77093195 17.35809408 -1 18 C-0.505 16.515 -0.505 16.515 0 15 C0 10.05 0 5.1 0 0 Z " fill="#EA1F20" transform="translate(129,55)"/>
<path d="M0 0 C-0.33 0.66 -0.66 1.32 -1 2 C-1 6.95 -1 11.9 -1 17 C-11.89 17 -22.78 17 -34 17 C-34 16.67 -34 16.34 -34 16 C-23.44 16 -12.88 16 -2 16 C-2 11.71 -2 7.42 -2 3 C-6.08356928 3.1407095 -10.16677636 3.28734853 -14.25 3.4375 C-15.40886719 3.47681641 -16.56773438 3.51613281 -17.76171875 3.55664062 C-19.43427734 3.61948242 -19.43427734 3.61948242 -21.140625 3.68359375 C-22.68024902 3.73858032 -22.68024902 3.73858032 -24.25097656 3.79467773 C-27.70678593 4.04353965 -27.70678593 4.04353965 -31 5 C-32.3045656 7.99615946 -32.3045656 7.99615946 -33 11 C-33.33 11 -33.66 11 -34 11 C-34 7.7 -34 4.4 -34 1 C-22.64764338 -0.05253638 -11.39053108 -0.10313358 0 0 Z " fill="#E41B19" transform="translate(131,188)"/>
<path d="M0 0 C2.45862401 -0.05383848 4.9160755 -0.09359038 7.375 -0.125 C8.42300781 -0.15013672 8.42300781 -0.15013672 9.4921875 -0.17578125 C11.32897486 -0.19344267 13.16601963 -0.10303261 15 0 C17.55948999 2.55948999 17.26068731 4.27207195 17.2734375 7.765625 C17.26570313 8.50296875 17.25796875 9.2403125 17.25 10 C17.25773437 10.73734375 17.26546875 11.4746875 17.2734375 12.234375 C17.2533196 17.7466804 17.2533196 17.7466804 15 20 C12.25514407 20.14507695 9.61519457 20.18652423 6.875 20.125 C6.12089844 20.11597656 5.36679688 20.10695312 4.58984375 20.09765625 C2.72642746 20.0740687 0.86317407 20.03819719 -1 20 C-0.505 18.515 -0.505 18.515 0 17 C4.62 17 9.24 17 14 17 C14 12.38 14 7.76 14 3 C9.05 3 4.1 3 -1 3 C-0.67 2.01 -0.34 1.02 0 0 Z " fill="#D23432" transform="translate(148,120)"/>
<path d="M0 0 C0.69738281 0.00451172 1.39476562 0.00902344 2.11328125 0.01367188 C3.82555803 0.0253998 5.53779033 0.04333347 7.25 0.0625 C6.92 1.0525 6.59 2.0425 6.25 3.0625 C0.64 3.0625 -4.97 3.0625 -10.75 3.0625 C-10.75 7.6825 -10.75 12.3025 -10.75 17.0625 C-4.81 17.0625 1.13 17.0625 7.25 17.0625 C6.59 18.0525 5.93 19.0425 5.25 20.0625 C2.26654925 20.11907242 -0.42281232 20.0200472 -3.375 19.75 C-6.13875 19.523125 -8.9025 19.29625 -11.75 19.0625 C-11.75 13.1225 -11.75 7.1825 -11.75 1.0625 C-7.71423344 0.05355836 -4.11293071 -0.05053696 0 0 Z " fill="#E21411" transform="translate(140.75,119.9375)"/>
<path d="M0 0 C0.33 0.99 0.66 1.98 1 3 C6.61 3 12.22 3 18 3 C18 3.33 18 3.66 18 4 C1.83 4 -14.34 4 -31 4 C-28 2 -28 2 -25.8125 2.375 C-25.214375 2.58125 -24.61625 2.7875 -24 3 C-24 2.34 -24 1.68 -24 1 C-16.08 0.67 -8.16 0.34 0 0 Z " fill="#BF1006" transform="translate(128,136)"/>
<path d="M0 0 C1.5 1.125 1.5 1.125 3 3 C3.1875 6.1875 3.1875 6.1875 3 9 C4.60681641 8.98259766 4.60681641 8.98259766 6.24609375 8.96484375 C7.64322743 8.95546701 9.04036299 8.94636669 10.4375 8.9375 C11.14455078 8.92912109 11.85160156 8.92074219 12.58007812 8.91210938 C14.38693559 8.90346412 16.19387603 8.94779989 18 9 C19 10 19 10 19.09765625 13.59765625 C19.0909822 15.08596867 19.07902183 16.57426432 19.0625 18.0625 C19.05798828 18.82111328 19.05347656 19.57972656 19.04882812 20.36132812 C19.0370068 22.24091871 19.01907078 24.12046899 19 26 C18.34 26.33 17.68 26.66 17 27 C17 22.05 17 17.1 17 12 C12.15333889 12.07901826 12.15333889 12.07901826 7.30712891 12.18017578 C5.53712725 12.1948117 3.76727545 12.09928514 2 12 C0 10 0 10 -0.1953125 7.6171875 C-0.17210937 6.71226562 -0.14890625 5.80734375 -0.125 4.875 C-0.10695312 3.96492187 -0.08890625 3.05484375 -0.0703125 2.1171875 C-0.04710937 1.41851562 -0.02390625 0.71984375 0 0 Z " fill="#C4292B" transform="translate(44,128)"/>
<path d="M0 0 C0.80050781 0.48146484 0.80050781 0.48146484 1.6171875 0.97265625 C5.3976106 2.60257637 9.2484443 2.4042809 13.3203125 2.55859375 C14.20460937 2.70425781 15.08890625 2.84992188 16 3 C18.49478443 6.74217664 18.06996285 8.150197 17.66015625 12.56640625 C17.54676951 13.92310284 17.43638143 15.28005257 17.32861328 16.63720703 C17.27135071 17.34999817 17.21408813 18.06278931 17.15509033 18.79718018 C16.89469879 22.49564183 16.7866846 26.19665256 16.68359375 29.90234375 C16.66237457 30.64424957 16.6411554 31.3861554 16.61929321 32.15054321 C16.55640407 34.41280636 16.49686358 36.67514189 16.4375 38.9375 C16.39414616 40.50716883 16.35052764 42.07683037 16.30664062 43.64648438 C16.2013908 47.43091295 16.0996701 51.21542054 16 55 C15.67 55 15.34 55 15 55 C14.67 38.5 14.34 22 14 5 C9.71 4.67 5.42 4.34 1 4 C0.34 3.34 -0.32 2.68 -1 2 C-0.67 1.34 -0.34 0.68 0 0 Z " fill="#AF3B38" transform="translate(164,84)"/>
<path d="M0 0 C10.89 0 21.78 0 33 0 C31.68 0.33 30.36 0.66 29 1 C29 1.66 29 2.32 29 3 C24.91672643 3.0580772 20.83355917 3.09362249 16.75 3.125 C15.01169922 3.15013672 15.01169922 3.15013672 13.23828125 3.17578125 C12.12324219 3.18222656 11.00820312 3.18867187 9.859375 3.1953125 C8.83295898 3.20578613 7.80654297 3.21625977 6.74902344 3.22705078 C3.98015712 2.99836111 2.35581208 2.4243299 0 1 C0 0.67 0 0.34 0 0 Z " fill="#B90203" transform="translate(100,120)"/>
<path d="M0 0 C1.06347656 0.00515625 2.12695312 0.0103125 3.22265625 0.015625 C4.28355469 0.01046875 5.34445313 0.0053125 6.4375 0 C9.28515625 0.265625 9.28515625 0.265625 12.28515625 2.265625 C9.52063592 3.64788516 7.23901995 3.36087887 4.16015625 3.328125 C3.06445312 3.31910156 1.96875 3.31007813 0.83984375 3.30078125 C-0.42472656 3.28337891 -0.42472656 3.28337891 -1.71484375 3.265625 C-1.69421875 4.461875 -1.67359375 5.658125 -1.65234375 6.890625 C-1.64601804 10.44567369 -2.015955 13.77118124 -2.71484375 17.265625 C-3.04484375 17.265625 -3.37484375 17.265625 -3.71484375 17.265625 C-3.93610553 14.80782524 -4.1423477 12.35034852 -4.33984375 9.890625 C-4.40429688 9.19195312 -4.46875 8.49328125 -4.53515625 7.7734375 C-4.67604114 5.94193389 -4.70246034 4.10249752 -4.71484375 2.265625 C-2.71484375 0.265625 -2.71484375 0.265625 0 0 Z " fill="#D53837" transform="translate(48.71484375,119.734375)"/>
<path d="M0 0 C1.32 0.66 2.64 1.32 4 2 C3.71653722 3.91789713 3.4228972 5.83429183 3.125 7.75 C2.96257812 8.81734375 2.80015625 9.8846875 2.6328125 10.984375 C2 14 2 14 0 18 C-8.58 18 -17.16 18 -26 18 C-26 17.67 -26 17.34 -26 17 C-17.75 17 -9.5 17 -1 17 C-0.67 11.39 -0.34 5.78 0 0 Z " fill="#CE0606" transform="translate(163,173)"/>
<path d="M0 0 C0.69738281 0.00451172 1.39476562 0.00902344 2.11328125 0.01367188 C3.82555803 0.0253998 5.53779033 0.04333347 7.25 0.0625 C6.92 1.0525 6.59 2.0425 6.25 3.0625 C0.31 3.0625 -5.63 3.0625 -11.75 3.0625 C-11.75 2.4025 -11.75 1.7425 -11.75 1.0625 C-7.88276369 -0.20332219 -4.01848738 -0.0493765 0 0 Z " fill="#D41A19" transform="translate(140.75,119.9375)"/>
<path d="M0 0 C10.56 0 21.12 0 32 0 C32 0.33 32 0.66 32 1 C30.65252686 1.08302368 30.65252686 1.08302368 29.27783203 1.16772461 C25.9491461 1.37487829 22.62075248 1.58589839 19.29248047 1.79956055 C17.85117241 1.89128605 16.40976497 1.98146339 14.96826172 2.07006836 C12.89783171 2.19760001 10.82782145 2.33067155 8.7578125 2.46484375 C7.5114502 2.543396 6.26508789 2.62194824 4.98095703 2.70288086 C2.07573625 2.8136742 2.07573625 2.8136742 0 4 C0 2.68 0 1.36 0 0 Z " fill="#E74240" transform="translate(97,55)"/>
<path d="M0 0 C2.31 0 4.62 0 7 0 C7 0.33 7 0.66 7 1 C12.28 1.33 17.56 1.66 23 2 C23 2.33 23 2.66 23 3 C13.1 3 3.2 3 -7 3 C-4 1 -4 1 -1.8125 1.375 C-1.214375 1.58125 -0.61625 1.7875 0 2 C0 1.34 0 0.68 0 0 Z " fill="#B40100" transform="translate(104,137)"/>
<path d="M0 0 C10.23 0 20.46 0 31 0 C31 0.33 31 0.66 31 1 C23.41 1 15.82 1 8 1 C8 1.66 8 2.32 8 3 C2.25 3.125 2.25 3.125 0 2 C0 1.34 0 0.68 0 0 Z " fill="#D50805" transform="translate(96,136)"/>
<path d="M0 0 C0.80050781 0.48146484 0.80050781 0.48146484 1.6171875 0.97265625 C5.3976106 2.60257637 9.2484443 2.4042809 13.3203125 2.55859375 C14.20460937 2.70425781 15.08890625 2.84992188 16 3 C18.51005664 6.76508495 18.0258295 9.39461609 17.625 13.6875 C17.56828125 14.38939453 17.5115625 15.09128906 17.453125 15.81445312 C17.31195359 17.54380285 17.15728041 19.27204088 17 21 C16.67 21 16.34 21 16 21 C15.93941406 19.92878906 15.87882812 18.85757813 15.81640625 17.75390625 C15.73201463 16.35675609 15.64736594 14.95962143 15.5625 13.5625 C15.52318359 12.85544922 15.48386719 12.14839844 15.44335938 11.41992188 C15.52375562 7.91309581 15.52375562 7.91309581 14 5 C10.67052907 4.71461678 7.34102372 4.55107367 4.00390625 4.37890625 C1 4 1 4 -1 2 C-0.67 1.34 -0.34 0.68 0 0 Z " fill="#D63B39" transform="translate(164,84)"/>
<path d="M0 0 C4.62 0 9.24 0 14 0 C14 0.66 14 1.32 14 2 C11.11584117 3.44207941 8.58278472 3.09394887 5.375 3.0625 C4.18648437 3.05347656 2.99796875 3.04445312 1.7734375 3.03515625 C0.85820312 3.02355469 -0.05703125 3.01195312 -1 3 C-0.67 2.01 -0.34 1.02 0 0 Z " fill="#E0302C" transform="translate(148,137)"/>
<path d="M0 0 C0.99 0.33 1.98 0.66 3 1 C2.34 1.66 1.68 2.32 1 3 C0.69400937 5.56916657 0.48912913 8.04758384 0.375 10.625 C0.33632813 11.33140625 0.29765625 12.0378125 0.2578125 12.765625 C0.16352276 14.50998524 0.08067109 16.25495691 0 18 C-1.65 18 -3.3 18 -5 18 C-4.01 17.67 -3.02 17.34 -2 17 C-2 11.72 -2 6.44 -2 1 C-1.34 0.67 -0.68 0.34 0 0 Z " fill="#C54041" transform="translate(63,103)"/>
<path d="M0 0 C10.89 0 21.78 0 33 0 C33 0.33 33 0.66 33 1 C31.72153198 1.03758423 31.72153198 1.03758423 30.41723633 1.07592773 C27.23955034 1.17135569 24.06201106 1.27057124 20.88452148 1.37231445 C19.51217224 1.4154884 18.13977533 1.45717501 16.76733398 1.49731445 C14.78877932 1.55544392 12.8104003 1.6194571 10.83203125 1.68359375 C9.64327393 1.72025146 8.4545166 1.75690918 7.22973633 1.79467773 C4.38595153 1.97546411 1.77093195 2.35809408 -1 3 C-0.67 2.01 -0.34 1.02 0 0 Z " fill="#D11A19" transform="translate(129,70)"/>
<path d="M0 0 C0.66 0.33 1.32 0.66 2 1 C2.05382106 3.62527189 2.09358313 6.24944713 2.125 8.875 C2.14175781 9.62136719 2.15851563 10.36773437 2.17578125 11.13671875 C2.1933959 13.09194461 2.10320189 15.04742021 2 17 C1.34 17.66 0.68 18.32 0 19 C-0.99 18.67 -1.98 18.34 -3 18 C-2.34 18 -1.68 18 -1 18 C-0.505 9.09 -0.505 9.09 0 0 Z " fill="#AF3B39" transform="translate(163,121)"/>
<path d="M0 0 C1.6396875 0.0928125 1.6396875 0.0928125 3.3125 0.1875 C3.3125 0.8475 3.3125 1.5075 3.3125 2.1875 C4.9625 2.1875 6.6125 2.1875 8.3125 2.1875 C8.3125 2.5175 8.3125 2.8475 8.3125 3.1875 C3.3625 3.1875 -1.5875 3.1875 -6.6875 3.1875 C-3.6875 0.1875 -3.6875 0.1875 0 0 Z " fill="#DE302E" transform="translate(69.6875,102.8125)"/>
<path d="M0 0 C0.7734375 0.2165625 0.7734375 0.2165625 1.5625 0.4375 C4.68509571 1.15809901 7.82550692 1.57266439 11 2 C11 2.33 11 2.66 11 3 C7.04 3 3.08 3 -1 3 C-0.67 2.01 -0.34 1.02 0 0 Z " fill="#C63832" transform="translate(148,137)"/>
</svg>
