<svg xmlns="http://www.w3.org/2000/svg" xmlns:xlink="http://www.w3.org/1999/xlink" version="1.1" xml:space="preserve" viewBox="0 0 1080 1080">
<desc>Created with Fabric.js 5.2.4</desc>
<defs>
</defs>
<g transform="matrix(1 0 0 1 540 540)" id="3d225a4f-cb9b-49c9-bd34-78d2430bda00">
<rect style="stroke: none; stroke-width: 1; stroke-dasharray: none; stroke-linecap: butt; stroke-dashoffset: 0; stroke-linejoin: miter; stroke-miterlimit: 4; fill: rgb(255,255,255); fill-rule: nonzero; opacity: 1; visibility: hidden;" vector-effect="non-scaling-stroke" x="-540" y="-540" rx="0" ry="0" width="1080" height="1080"/>
</g>
<g transform="matrix(1 0 0 1 540 540)" id="f914038b-fefd-4932-8212-c32ad8f52b4e">
</g>
<g transform="matrix(1 0 0 1 540 540)">
<g style="" vector-effect="non-scaling-stroke">
		<g transform="matrix(1 0 0 1 -490 -490)">
<rect style="stroke: none; stroke-width: 1; stroke-dasharray: none; stroke-linecap: butt; stroke-dashoffset: 0; stroke-linejoin: miter; stroke-miterlimit: 4; fill: rgb(255,255,255); fill-opacity: 0; fill-rule: nonzero; opacity: 1;" vector-effect="non-scaling-stroke" x="-50" y="-50" rx="0" ry="0" width="100" height="100"/>
</g>
		<g transform="matrix(1 0 0 1 0 0)">
<rect style="stroke: none; stroke-width: 1; stroke-dasharray: none; stroke-linecap: butt; stroke-dashoffset: 0; stroke-linejoin: miter; stroke-miterlimit: 4; fill: rgb(255,255,255); fill-rule: nonzero; opacity: 1; visibility: hidden;" vector-effect="non-scaling-stroke" x="-540" y="-540" rx="0" ry="0" width="1080" height="1080"/>
</g>
		<g transform="matrix(1 0 0 1 0 0)">
<path style="stroke: rgb(0,0,0); stroke-width: 0; stroke-dasharray: none; stroke-linecap: butt; stroke-dashoffset: 0; stroke-linejoin: miter; stroke-miterlimit: 4; fill: rgb(255,255,255); fill-rule: nonzero; opacity: 1;" vector-effect="non-scaling-stroke" transform=" translate(-12, -12)" d="M 17.7530511 13.999921 C 18.9956918 13.999921 20.0030511 15.0072804 20.0030511 16.249921 L 20.0030511 17.1550008 C 20.0030511 18.2486786 19.5255957 19.2878579 18.6957793 20.0002733 C 17.1303315 21.344244 14.8899962 22.0010712 12 22.0010712 C 9.11050247 22.0010712 6.87168436 21.3444691 5.30881727 20.0007885 C 4.48019625 19.2883988 4.00354153 18.2500002 4.00354153 17.1572408 L 4.00354153 16.249921 C 4.00354153 15.0072804 5.01090084 13.999921 6.25354153 13.999921 L 17.7530511 13.999921 Z M 17.7530511 15.499921 L 6.25354153 15.499921 C 5.83932796 15.499921 5.50354153 15.8357075 5.50354153 16.249921 L 5.50354153 17.1572408 C 5.50354153 17.8128951 5.78953221 18.4359296 6.28670709 18.8633654 C 7.5447918 19.9450082 9.44080155 20.5010712 12 20.5010712 C 14.5599799 20.5010712 16.4578003 19.9446634 17.7186879 18.8621641 C 18.2165778 18.4347149 18.5030511 17.8112072 18.5030511 17.1550005 L 18.5030511 16.249921 C 18.5030511 15.8357075 18.1672647 15.499921 17.7530511 15.499921 Z M 11.8985607 2.00734093 L 12.0003312 2.00049432 C 12.380027 2.00049432 12.6938222 2.2826482 12.7434846 2.64872376 L 12.7503312 2.75049432 L 12.7495415 3.49949432 L 16.25 3.5 C 17.4926407 3.5 18.5 4.50735931 18.5 5.75 L 18.5 10.254591 C 18.5 11.4972317 17.4926407 12.504591 16.25 12.504591 L 7.75 12.504591 C 6.50735931 12.504591 5.5 11.4972317 5.5 10.254591 L 5.5 5.75 C 5.5 4.50735931 6.50735931 3.5 7.75 3.5 L 11.2495415 3.49949432 L 11.2503312 2.75049432 C 11.2503312 2.37079855 11.5324851 2.05700336 11.8985607 2.00734093 L 12.0003312 2.00049432 L 11.8985607 2.00734093 Z M 16.25 5 L 7.75 5 C 7.33578644 5 7 5.33578644 7 5.75 L 7 10.254591 C 7 10.6688046 7.33578644 11.004591 7.75 11.004591 L 16.25 11.004591 C 16.6642136 11.004591 17 10.6688046 17 10.254591 L 17 5.75 C 17 5.33578644 16.6642136 5 16.25 5 Z M 9.74928905 6.5 C 10.4392523 6.5 10.9985781 7.05932576 10.9985781 7.74928905 C 10.9985781 8.43925235 10.4392523 8.99857811 9.74928905 8.99857811 C 9.05932576 8.99857811 8.5 8.43925235 8.5 7.74928905 C 8.5 7.05932576 9.05932576 6.5 9.74928905 6.5 Z M 14.2420255 6.5 C 14.9319888 6.5 15.4913145 7.05932576 15.4913145 7.74928905 C 15.4913145 8.43925235 14.9319888 8.99857811 14.2420255 8.99857811 C 13.5520622 8.99857811 12.9927364 8.43925235 12.9927364 7.74928905 C 12.9927364 7.05932576 13.5520622 6.5 14.2420255 6.5 Z" stroke-linecap="round"/>
</g>
		<g transform="matrix(1 0 0 1 0 128)">
<path style="stroke: none; stroke-width: 1; stroke-dasharray: none; stroke-linecap: butt; stroke-dashoffset: 0; stroke-linejoin: miter; stroke-miterlimit: 4; fill: rgb(255,255,255); fill-rule: nonzero; opacity: 1;" vector-effect="non-scaling-stroke" transform=" translate(-179.5, -103)" d="M 0 0 C 17.16 0 34.32 0 52 0 C 52 17.16 52 34.32 52 52 C 35.17 52 18.34 52 1 52 C 1 85.66 1 119.32 1 154 C 118.81 154 236.62 154 358 154 C 358 120.34 358 86.68 358 52 C 341.17 52 324.34 52 307 52 C 307 34.84 307 17.68 307 0 C 324.16 0 341.32 0 359 0 C 359 16.83 359 33.66 359 51 C 375.83 51 392.66 51 410 51 C 410 102.15 410 153.3 410 206 C 257.87 206 105.74 206 -51 206 C -51 154.85 -51 103.7 -51 51 C -34.17 51 -17.34 51 0 51 C 0 34.17 0 17.34 0 0 Z" stroke-linecap="round"/>
</g>
		<g transform="matrix(1 0 0 1 0 -102.5)">
<path style="stroke: none; stroke-width: 1; stroke-dasharray: none; stroke-linecap: butt; stroke-dashoffset: 0; stroke-linejoin: miter; stroke-miterlimit: 4; fill: rgb(255,255,255); fill-rule: nonzero; opacity: 1;" vector-effect="non-scaling-stroke" transform=" translate(-77.5, -128.5)" d="M 0 0 C 51.15 0 102.3 0 155 0 C 155 16.83 155 33.66 155 51 C 171.83 51 188.66 51 206 51 C 206 102.15 206 153.3 206 206 C 189.17 206 172.34 206 155 206 C 155 222.83 155 239.66 155 257 C 103.85 257 52.7 257 0 257 C 0 240.17 0 223.34 0 206 C -16.83 206 -33.66 206 -51 206 C -51 154.85 -51 103.7 -51 51 C -34.17 51 -17.34 51 0 51 C 0 34.17 0 17.34 0 0 Z M 1 52 C 1 102.49 1 152.98 1 205 C 51.49 205 101.98 205 154 205 C 154 154.51 154 104.02 154 52 C 103.51 52 53.02 52 1 52 Z" stroke-linecap="round"/>
</g>
</g>
</g>
</svg>