<?xml version="1.0" encoding="UTF-8"?>
<svg version="1.1" xmlns="http://www.w3.org/2000/svg" width="512" height="512">
<path d="M0 0 C11.22 0 22.44 0 34 0 C34 10.89 34 21.78 34 33 C23.11 33 12.22 33 1 33 C1 43.89 1 54.78 1 66 C-9.89 66 -20.78 66 -32 66 C-32 98.01 -32 130.02 -32 163 C-21.11 163 -10.22 163 1 163 C1 173.56 1 184.12 1 195 C11.48623165 194.96040089 11.48623165 194.96040089 21.97241211 194.90991211 C23.26928955 194.90741455 24.56616699 194.90491699 25.90234375 194.90234375 C26.58816528 194.89722778 27.27398682 194.89211182 27.98059082 194.88684082 C29.65415231 194.88652946 31.3275958 194.93777163 33 195 C40.78174502 202.78174502 34 216.99495065 34 228 C65.68 228 97.36 228 130 228 C130 217.44 130 206.88 130 196 C131 195 131 195 134.05102539 194.88647461 C135.39991269 194.88672557 136.74880645 194.89228185 138.09765625 194.90234375 C140.04297241 194.90609009 140.04297241 194.90609009 142.02758789 194.90991211 C144.51986938 194.92356812 144.51986938 194.92356812 147.0625 194.9375 C152.321875 194.958125 157.58125 194.97875 163 195 C163 184.44 163 173.88 163 163 C173.89 163 184.78 163 196 163 C196 130.99 196 98.98 196 66 C185.11 66 174.22 66 163 66 C163 55.11 163 44.22 163 33 C152.11 33 141.22 33 130 33 C130 22.11 130 11.22 130 0 C141.22 0 152.44 0 164 0 C164 10.56 164 21.12 164 32 C174.89 32 185.78 32 197 32 C197 42.89 197 53.78 197 65 C207.56 65 218.12 65 229 65 C229 97.67 229 130.34 229 164 C218.44 164 207.88 164 197 164 C197 174.56 197 185.12 197 196 C186.11 196 175.22 196 164 196 C164 206.89 164 217.78 164 229 C153.11 229 142.22 229 131 229 C131 239.89 131 250.78 131 262 C98.66 262 66.32 262 33 262 C33 251.11 33 240.22 33 229 C22.11 229 11.22 229 0 229 C0 218.11 0 207.22 0 196 C-10.89 196 -21.78 196 -33 196 C-33 185.44 -33 174.88 -33 164 C-43.56 164 -54.12 164 -65 164 C-65 131.33 -65 98.66 -65 65 C-54.44 65 -43.88 65 -33 65 C-33 54.11 -33 43.22 -33 32 C-22.11 32 -11.22 32 0 32 C0 21.44 0 10.88 0 0 Z " fill="#000000" transform="translate(174,109)"/>
<path d="M0 0 C11.22 0 22.44 0 34 0 C34 54.12 34 108.24 34 164 C22.78 164 11.56 164 0 164 C0 109.88 0 55.76 0 0 Z " fill="#000000" transform="translate(239,76)"/>
<path d="M0 0 C11.22 0 22.44 0 34 0 C34 11.22 34 22.44 34 34 C22.78 34 11.56 34 0 34 C0 22.78 0 11.56 0 0 Z " fill="#000000" transform="translate(304,402)"/>
<path d="M0 0 C11.22 0 22.44 0 34 0 C34 11.22 34 22.44 34 34 C22.78 34 11.56 34 0 34 C0 22.78 0 11.56 0 0 Z " fill="#000000" transform="translate(239,402)"/>
<path d="M0 0 C11.22 0 22.44 0 34 0 C34 11.22 34 22.44 34 34 C22.78 34 11.56 34 0 34 C0 22.78 0 11.56 0 0 Z " fill="#000000" transform="translate(174,402)"/>
</svg>
