<?xml version="1.0" encoding="UTF-8"?>
<svg version="1.1" xmlns="http://www.w3.org/2000/svg" width="200" height="200">
<path d="M0 0 C5.94 0 11.88 0 18 0 C18 5.94 18 11.88 18 18 C23.94 18 29.88 18 36 18 C36 23.94 36 29.88 36 36 C41.94 36 47.88 36 54 36 C54 41.94 54 47.88 54 54 C36.18 54 18.36 54 0 54 C0 36.18 0 18.36 0 0 Z " fill="#000000" transform="translate(36,38)"/>
<path d="M0 0 C17.82 0 35.64 0 54 0 C54 5.94 54 11.88 54 18 C36.18 18 18.36 18 0 18 C0 12.06 0 6.12 0 0 Z " fill="#000000" transform="translate(72,146)"/>
<path d="M0 0 C5.94 0 11.88 0 18 0 C18 17.82 18 35.64 18 54 C12.06 54 6.12 54 0 54 C0 36.18 0 18.36 0 0 Z " fill="#000000" transform="translate(144,74)"/>
<path d="M0 0 C17.82 0 35.64 0 54 0 C54 5.94 54 11.88 54 18 C36.18 18 18.36 18 0 18 C0 12.06 0 6.12 0 0 Z " fill="#000000" transform="translate(72,38)"/>
<path d="M0 0 C5.94 0 11.88 0 18 0 C18 5.94 18 11.88 18 18 C12.06 18 6.12 18 0 18 C0 12.06 0 6.12 0 0 Z " fill="#000000" transform="translate(126,128)"/>
<path d="M0 0 C5.94 0 11.88 0 18 0 C18 5.94 18 11.88 18 18 C12.06 18 6.12 18 0 18 C0 12.06 0 6.12 0 0 Z " fill="#000000" transform="translate(54,128)"/>
<path d="M0 0 C5.94 0 11.88 0 18 0 C18 5.94 18 11.88 18 18 C12.06 18 6.12 18 0 18 C0 12.06 0 6.12 0 0 Z " fill="#000000" transform="translate(126,56)"/>
</svg>
