<svg width="119" height="118" viewBox="0 0 119 118" fill="none" xmlns="http://www.w3.org/2000/svg">
<path d="M0.960938 0H13.9586V13.1H0.960938V0Z" fill="#1B9AAA"/>
<path d="M13.9586 13.1H26.9563V26.2H13.9586V13.1Z" fill="#1B9AAA"/>
<path d="M26.9562 26.2H39.9539V39.3H26.9562V26.2Z" fill="#1B9AAA"/>
<path d="M40.0035 39.35H53.0012V52.45H40.0035V39.35Z" fill="#1B9AAA"/>
<path d="M53.0012 52.45H65.9988V65.55H53.0012V52.45Z" fill="#1B9AAA"/>
<path d="M65.9988 65.55H78.9965V78.65H65.9988V65.55Z" fill="#1B9AAA"/>
<path d="M78.9965 78.65H91.9941V91.75H78.9965V78.65Z" fill="#1B9AAA"/>
<path d="M92.0438 91.8H105.041V104.9H92.0438V91.8Z" fill="#1B9AAA"/>
<path d="M105.041 0H118.039V13.1H105.041V0Z" fill="#1B9AAA"/>
<path d="M92.0438 13.1H105.041V26.2H92.0438V13.1Z" fill="#1B9AAA"/>
<path d="M78.9965 26.2H91.9941V39.3H78.9965V26.2Z" fill="#1B9AAA"/>
<path d="M65.9988 39.35H78.9965V52.45H65.9988V39.35Z" fill="#1B9AAA"/>
<path d="M40.0035 65.55H53.0012V78.65H40.0035V65.55Z" fill="#1B9AAA"/>
<path d="M26.9562 78.65H39.9539V91.75H26.9562V78.65Z" fill="#1B9AAA"/>
<path d="M13.9586 91.8H26.9563V104.9H13.9586V91.8Z" fill="#1B9AAA"/>
<path d="M105.041 104.9H118.039V118H105.041V104.9Z" fill="#1B9AAA"/>
<path d="M0.960938 104.9H13.9586V118H0.960938V104.9Z" fill="#1B9AAA"/>
</svg>
