<?xml version="1.0" encoding="utf-8"?>
<!-- Svg Vector Icons : http://www.onlinewebfonts.com/icon -->
<!DOCTYPE svg PUBLIC "-//W3C//DTD SVG 1.1//EN" "http://www.w3.org/Graphics/SVG/1.1/DTD/svg11.dtd">
<svg version="1.1" xmlns="http://www.w3.org/2000/svg" xmlns:xlink="http://www.w3.org/1999/xlink" x="0px" y="0px" viewBox="0 0 256 256" enable-background="new 0 0 256 256" xml:space="preserve">
<metadata> Svg Vector Icons : http://www.onlinewebfonts.com/icon </metadata>
<g><g><path fill="#000000" d="M10,10h26.2v26.2H10V10L10,10z"/><path fill="#000000" d="M36.2,36.2h26.2v26.2H36.2V36.2L36.2,36.2z"/><path fill="#000000" d="M62.4,62.4h26.2v26.2H62.4V62.4z"/><path fill="#000000" d="M88.7,88.7h26.2v26.2H88.7V88.7z"/><path fill="#000000" d="M114.9,114.9h26.2v26.2h-26.2V114.9L114.9,114.9z"/><path fill="#000000" d="M141.1,141.1h26.2v26.2h-26.2V141.1z"/><path fill="#000000" d="M167.3,167.3h26.2v26.2h-26.2V167.3z"/><path fill="#000000" d="M193.6,193.6h26.2v26.2h-26.2V193.6z"/><path fill="#000000" d="M219.8,10H246v26.2h-26.2V10z"/><path fill="#000000" d="M193.6,36.2h26.2v26.2h-26.2V36.2L193.6,36.2z"/><path fill="#000000" d="M167.3,62.4h26.2v26.2h-26.2V62.4z"/><path fill="#000000" d="M141.1,88.7h26.2v26.2h-26.2V88.7z"/><path fill="#000000" d="M88.7,141.1h26.2v26.2H88.7V141.1z"/><path fill="#000000" d="M62.4,167.3h26.2v26.2H62.4V167.3z"/><path fill="#000000" d="M36.2,193.6h26.2v26.2H36.2V193.6L36.2,193.6z"/><path fill="#000000" d="M219.8,219.8H246V246h-26.2V219.8z"/><path fill="#000000" d="M10,219.8h26.2V246H10V219.8L10,219.8z"/></g></g>
</svg>